<?xml version="1.0" encoding="utf-8"?>
<!-- Generator: Adobe Illustrator 24.2.3, SVG Export Plug-In . SVG Version: 6.00 Build 0)  -->
<svg version="1.1" id="Layer_1" focusable="false" xmlns="http://www.w3.org/2000/svg" xmlns:xlink="http://www.w3.org/1999/xlink"
	 x="0px" y="0px" viewBox="0 0 448 512" style="enable-background:new 0 0 448 512;" xml:space="preserve">
<style type="text/css">
	.st0{fill:#0449CC;}
</style>
<path class="st0" d="M0,464c0,26.5,21.5,48,48,48h352c26.5,0,48-21.5,48-48V192H0V464z M64,272c0-8.8,7.2-16,16-16h288
	c8.8,0,16,7.2,16,16v64c0,8.8-7.2,16-16,16H80c-8.8,0-16-7.2-16-16V272z M400,64h-48V16c0-8.8-7.2-16-16-16h-32c-8.8,0-16,7.2-16,16
	v48H160V16c0-8.8-7.2-16-16-16h-32c-8.8,0-16,7.2-16,16v48H48C21.5,64,0,85.5,0,112v48h448v-48C448,85.5,426.5,64,400,64z"/>
</svg>
