<?xml version="1.0" encoding="utf-8"?>
<!-- Generator: Adobe Illustrator 24.3.0, SVG Export Plug-In . SVG Version: 6.00 Build 0)  -->
<svg version="1.1" id="Layer_1" xmlns="http://www.w3.org/2000/svg" xmlns:xlink="http://www.w3.org/1999/xlink" x="0px" y="0px"
	 viewBox="0 0 65 65" style="enable-background:new 0 0 65 65;" xml:space="preserve">
<style type="text/css">
	.st0{fill:#0449CC;}
	.st1{fill-rule:evenodd;clip-rule:evenodd;fill:#FFFFFF;}
</style>
<rect class="st0" width="65" height="65"/>
<path class="st1" d="M35,7.7c2.5,0,5,0.4,7.3,1.1c3.6-2.5,7.7-4.1,12.1-5.3c-3.7,2-7,4-9.8,6.1c8.8,3.7,15,12.4,15,22.6
	c0,13.5-11,24.5-24.5,24.5c-2.5,0-4.9-0.4-7.1-1c-4.5,2.6-10.2,5.9-15.8,5.9c-3.2,0-6.6-1.8-6.6-6.9c0-14.4,21.5-34.9,29.4-40.9
	c-8.4,3-17.7,9.6-24.3,16.9C11.3,17.8,22,7.7,35,7.7L35,7.7z M25.4,54.7c-4.8-2-8.8-5.5-11.4-10c-1.4,2.1-2.5,5.1-2.5,7.6
	c0,2.6,2,5.2,5.2,5.2C19.4,57.5,22.8,56.2,25.4,54.7z"/>
</svg>
