<?xml version="1.0" encoding="utf-8"?>
<!-- Generator: Adobe Illustrator 24.3.0, SVG Export Plug-In . SVG Version: 6.00 Build 0)  -->
<svg version="1.1" id="Layer_1" focusable="false" xmlns="http://www.w3.org/2000/svg" xmlns:xlink="http://www.w3.org/1999/xlink"
	 x="0px" y="0px" viewBox="0 0 150 150" style="enable-background:new 0 0 150 150;" xml:space="preserve">
<style type="text/css">
	.st0{fill:#FFFFFF;}
</style>
<path class="st0" d="M75,36.5c-21.3,0-38.4,17.2-38.4,38.4s17.2,38.4,38.4,38.4s38.4-17.2,38.4-38.4S96.3,36.5,75,36.5z M75,100
	c-13.8,0-25-11.2-25-25s11.2-25,25-25s25,11.2,25,25S88.8,100,75,100L75,100z M124,35c0,5-4,9-9,9c-5,0-9-4-9-9s4-9,9-9
	C120,26,124,30,124,35z M149.5,44.1c-0.6-12-3.3-22.7-12.1-31.4C128.6,3.9,118,1.1,105.9,0.5c-12.4-0.7-49.5-0.7-61.9,0
	c-12,0.6-22.6,3.3-31.4,12.1S1.1,32,0.5,44c-0.7,12.4-0.7,49.5,0,61.9c0.6,12,3.3,22.7,12.1,31.4c8.8,8.8,19.4,11.5,31.4,12.1
	c12.4,0.7,49.5,0.7,61.9,0c12-0.6,22.7-3.3,31.4-12.1c8.8-8.8,11.5-19.4,12.1-31.4C150.2,93.5,150.2,56.4,149.5,44.1L149.5,44.1z
	 M133.5,119.2c-2.6,6.6-7.7,11.6-14.3,14.3c-9.9,3.9-33.3,3-44.2,3s-34.4,0.9-44.2-3c-6.6-2.6-11.6-7.7-14.3-14.3
	c-3.9-9.9-3-33.3-3-44.2s-0.9-34.4,3-44.2c2.6-6.6,7.7-11.6,14.3-14.3c9.9-3.9,33.3-3,44.2-3s34.4-0.9,44.2,3
	c6.6,2.6,11.6,7.7,14.3,14.3c3.9,9.9,3,33.3,3,44.2S137.4,109.4,133.5,119.2z"/>
</svg>
