<?xml version="1.0" encoding="utf-8"?>
<!-- Generator: Adobe Illustrator 24.3.0, SVG Export Plug-In . SVG Version: 6.00 Build 0)  -->
<svg version="1.1" id="Layer_1" focusable="false" xmlns="http://www.w3.org/2000/svg" xmlns:xlink="http://www.w3.org/1999/xlink"
	 x="0px" y="0px" viewBox="0 0 150 150" style="enable-background:new 0 0 150 150;" xml:space="preserve">
<style type="text/css">
	.st0{fill:#FFFFFF;}
</style>
<path class="st0" d="M33.6,150H2.5V49.8h31.1V150z M18,36.2C8.1,36.2,0,28,0,18C0,8.1,8.1,0,18,0C28,0,36,8.1,36,18
	C36,28,28,36.2,18,36.2z M150,150h-31v-48.8c0-11.6-0.2-26.5-16.2-26.5c-16.2,0-18.6,12.6-18.6,25.7V150H53.1V49.8h29.8v13.7h0.4
	c4.2-7.9,14.3-16.2,29.4-16.2c31.5,0,37.3,20.7,37.3,47.6L150,150L150,150z"/>
</svg>
