<?xml version="1.0" encoding="utf-8"?>
<!-- Generator: Adobe Illustrator 24.2.3, SVG Export Plug-In . SVG Version: 6.00 Build 0)  -->
<svg version="1.1" id="Layer_1" focusable="false" xmlns="http://www.w3.org/2000/svg" xmlns:xlink="http://www.w3.org/1999/xlink"
	 x="0px" y="0px" viewBox="0 0 448 640" style="enable-background:new 0 0 448 640;" xml:space="preserve">
<style type="text/css">
	.st0{fill:#0449CC;}
</style>
<path class="st0" d="M176.2,47.4C160.8,80.3,152,124.2,152,168v285.7c-6.6,5-12,10.6-16,16.7V264C105.7,410.8,0,420.6,0,544v0h128
	v16H0c0,26.5,28.7,48,64,48h64c0,23.2,10,32,24,32h40c14,0,24-8.8,24-32h16c0,23.2,10,32,24,32h40c14,0,24-8.8,24-32h64
	c35.3,0,64-21.5,64-48H320v-16h128v0c0-123.4-105.7-133.2-136-280v206.4c-4-6.1-9.4-11.8-16-16.7V168c0-43.8-8.8-87.7-24.2-120.6
	C257.8,17.7,240,0,224,0S190.2,17.7,176.2,47.4z M264,152c0,4.4-3.6,8-8,8h-64c-4.4,0-8-3.6-8-8C184,120.1,264,120.1,264,152z"/>
</svg>
