<?xml version="1.0" encoding="utf-8"?>
<!-- Generator: Adobe Illustrator 24.3.0, SVG Export Plug-In . SVG Version: 6.00 Build 0)  -->
<svg version="1.1" id="Layer_1" xmlns="http://www.w3.org/2000/svg" xmlns:xlink="http://www.w3.org/1999/xlink" x="0px" y="0px"
	 viewBox="0 0 150 32.6" style="enable-background:new 0 0 150 32.6;" xml:space="preserve">
<style type="text/css">
	.st0{fill-rule:evenodd;clip-rule:evenodd;}
</style>
<g>
	<path class="st0" d="M16.6,2.4c1.4,0,2.8,0.2,4.1,0.6c2-1.4,4.3-2.3,6.8-3c-2.1,1.1-4,2.2-5.5,3.4c4.9,2.1,8.4,7,8.4,12.7
		c0,7.6-6.2,13.8-13.8,13.8c-1.4,0-2.7-0.2-4-0.6c-2.5,1.5-5.8,3.3-8.9,3.3c-1.8,0-3.7-1-3.7-3.9c0-8.1,12.1-19.6,16.5-23
		c-4.7,1.7-10,5.4-13.7,9.5C3.3,8.1,9.3,2.4,16.6,2.4L16.6,2.4z M11.2,28.8c-2.7-1.1-4.9-3.1-6.4-5.6C4,24.4,3.4,26,3.4,27.4
		c0,1.4,1.1,2.9,2.9,2.9C7.8,30.4,9.7,29.6,11.2,28.8z"/>
	<path d="M38.3,18.1c-0.5-0.4-0.8-0.9-1.1-1.5c-0.3-0.6-0.4-1.2-0.4-1.8c0-0.8,0.2-1.5,0.6-2.2c0.4-0.7,0.9-1.2,1.6-1.6
		s1.4-0.6,2.2-0.6h12.1v2.9H41.2c-0.4,0-0.7,0.1-1,0.4c-0.3,0.3-0.4,0.6-0.4,1s0.2,0.7,0.5,1c0.2,0.2,0.6,0.3,0.9,0.4
		s0.8,0.1,1.3,0.1c0.1,0,0.2,0,0.2,0h0c1.1,0,2.3,0,3.4,0h0.3c0.6,0,1.1,0,1.7,0c0.2,0,0.4,0,0.6,0c0.5,0,0.9,0,1.4,0.1
		c0.5,0.1,1,0.2,1.5,0.4c1.3,0.6,2,1.7,2.3,3.1c0.1,0.7,0.1,1.3-0.1,1.9c-0.2,0.7-0.5,1.3-1,1.8c-0.4,0.5-0.9,0.8-1.5,1.1
		c-0.6,0.3-1.1,0.4-1.7,0.4H37.3v-2.9h12.4c0.4,0,0.7-0.2,1-0.5c0.3-0.4,0.4-0.8,0.3-1.3c-0.1-0.5-0.3-0.8-0.7-1
		c-0.4-0.2-1-0.2-1.6-0.2c-0.2,0-0.4,0-0.6,0c-0.6,0-1.1,0-1.7,0h-0.3c-1.2,0-2.3,0-3.5,0c-0.1,0-0.1,0-0.2,0c-0.6,0-1.3,0-2-0.2
		C39.6,18.9,38.9,18.6,38.3,18.1z"/>
	<path d="M72.6,15.3c0,0.9-0.2,1.7-0.7,2.4c-0.4,0.7-1,1.3-1.8,1.8c-0.7,0.4-1.5,0.7-2.4,0.7h-7.4V25h-2.9V10.4h10.3
		c0.9,0,1.7,0.2,2.4,0.7s1.3,1,1.8,1.8C72.4,13.6,72.6,14.4,72.6,15.3z M60.4,13.4v3.9h7.4c0.5,0,1-0.2,1.4-0.6s0.6-0.8,0.6-1.4
		c0-0.5-0.2-1-0.6-1.4c-0.4-0.4-0.8-0.6-1.4-0.6H60.4z"/>
	<path d="M76.5,22.6L75.2,25h-3.3l7.8-14.6h3.1L90.6,25h-3.3L86,22.6H76.5z M81.3,13.8l-3.2,5.9h6.4L81.3,13.8z"/>
	<path d="M93.5,19.2v-2.9c0-1.6,0.6-2.9,1.7-4.1c1.2-1.1,2.6-1.7,4.1-1.7h5.3c1.6,0,2.9,0.6,4.1,1.7c1.1,1.1,1.6,2.4,1.7,3.9h-2.9
		c-0.1-0.8-0.4-1.4-0.9-1.9c-0.5-0.5-1.2-0.8-2-0.8h-5.3c-0.8,0-1.5,0.3-2.1,0.9s-0.9,1.3-0.9,2.1v2.9c0,0.8,0.3,1.5,0.9,2.1
		c0.6,0.6,1.3,0.9,2.1,0.9h5.3c0.8,0,1.4-0.3,2-0.8c0.5-0.5,0.9-1.1,0.9-1.9h2.9c-0.1,1.5-0.6,2.8-1.7,3.9c-1.2,1.1-2.6,1.7-4.1,1.7
		h-5.3c-1.6,0-2.9-0.6-4.1-1.7C94.1,22.1,93.5,20.7,93.5,19.2z"/>
	<path d="M116.8,25h-1.5h-1.5V10.4h1.5h1.5h13.1v2.9h-13.1v2.9H127v2.9h-10.2v2.9h13.1V25H116.8z"/>
	<g>
		<polygon points="139,18.5 133.2,25 137.1,25 141,20.7 		"/>
		<polygon points="150,10.4 146.1,10.4 141.6,15.5 137.1,10.4 133.2,10.4 139.7,17.7 141.6,19.9 146.1,25 150,25 143.6,17.7 		"/>
	</g>
</g>
</svg>
