<?xml version="1.0" encoding="utf-8"?>
<!-- Generator: Adobe Illustrator 24.3.0, SVG Export Plug-In . SVG Version: 6.00 Build 0)  -->
<svg version="1.1" id="Layer_1" focusable="false" xmlns="http://www.w3.org/2000/svg" xmlns:xlink="http://www.w3.org/1999/xlink"
	 x="0px" y="0px" viewBox="0 0 150 105.5" style="enable-background:new 0 0 150 105.5;" xml:space="preserve">
<style type="text/css">
	.st0{fill:#FFFFFF;}
</style>
<path class="st0" d="M146.9,16.5c-1.7-6.5-6.8-11.6-13.3-13.3C121.9,0,75,0,75,0S28.1,0,16.4,3.2C9.9,4.9,4.9,10,3.1,16.5
	C0,28.3,0,52.8,0,52.8s0,24.6,3.1,36.3c1.7,6.5,6.8,11.4,13.3,13.1c11.7,3.2,58.6,3.2,58.6,3.2s46.9,0,58.6-3.2
	c6.5-1.7,11.5-6.6,13.3-13.1c3.1-11.8,3.1-36.3,3.1-36.3S150,28.3,146.9,16.5z M59.7,75.1V30.5l39.2,22.3L59.7,75.1L59.7,75.1z"/>
</svg>
